<?xml version="1.0" encoding="utf-8"?>
<!-- Generator: Adobe Illustrator 15.0.2, SVG Export Plug-In . SVG Version: 6.00 Build 0)  -->
<!DOCTYPE svg PUBLIC "-//W3C//DTD SVG 1.1//EN" "http://www.w3.org/Graphics/SVG/1.1/DTD/svg11.dtd">
<svg version="1.1" id="Layer_1" xmlns="http://www.w3.org/2000/svg" xmlns:xlink="http://www.w3.org/1999/xlink" x="0px" y="0px"
	 width="900px" height="650px" viewBox="0 0 900 650" style="enable-background:new 0 0 900 650;" xml:space="preserve">
<g>
	<defs>
		<rect id="SVGID_1_" width="900" height="650"/>
	</defs>
	<clipPath id="SVGID_2_">
		<use xlink:href="#SVGID_1_"  style="overflow:visible;"/>
	</clipPath>
	<g style="clip-path:url(#SVGID_2_);">
		<path style="fill:#535353;" d="M142.4,140.2l6.3,42.2h0.2l6.7-42.2h11l6.7,42.2h0.2l6.3-42.2h11l-10.4,57.1h-12.9l-6.4-41.4H161
			l-6.4,41.4h-12.9l-10.4-57.1H142.4z"/>
		<path style="fill:#535353;" d="M207,140.2v21.8h13.4v-21.8H232v57.1h-11.5V172H207v25.4h-11.5v-57.1H207z"/>
		<path style="fill:#535353;" d="M265.3,140.2l15.1,57.1h-12l-2.6-12.1h-15.2l-2.6,12.1h-12l15.1-57.1H265.3z M263.8,175.8
			l-5.5-25.7h-0.2l-5.5,25.7H263.8z"/>
		<path style="fill:#535353;" d="M313.5,149.7H301v47.7h-11.5v-47.7H277v-9.4h36.5V149.7z"/>
		<path style="fill:#535353;" d="M338.2,140.2h11.5v57.1h-11.5V140.2z"/>
		<path style="fill:#535353;" d="M390.2,140.2v9.4h-20.4v13.4H389v9.4h-19.2v24.8h-11.5v-57.1H390.2z"/>
		<path style="fill:#535353;" d="M428.4,162.3h0.2l8-22.1H449l-14.8,34.6v22.5h-11.5v-22.5l-14.8-34.6h13L428.4,162.3z"/>
		<path style="fill:#535353;" d="M452.6,156.8c0.4-3.7,1.3-6.8,2.6-9.4c1.4-2.6,3.3-4.7,5.9-6.1c2.6-1.5,6-2.2,10.3-2.2
			s7.8,0.7,10.3,2.2c2.6,1.5,4.5,3.5,5.9,6.1c1.4,2.6,2.2,5.7,2.6,9.4s0.6,7.6,0.6,12c0,4.4-0.2,8.4-0.6,12s-1.3,6.7-2.6,9.4
			c-1.4,2.6-3.3,4.6-5.9,6c-2.6,1.4-6,2.1-10.3,2.1s-7.8-0.7-10.3-2.1c-2.6-1.4-4.5-3.4-5.9-6c-1.4-2.6-2.2-5.7-2.6-9.4
			c-0.4-3.6-0.6-7.6-0.6-12C452,164.5,452.2,160.5,452.6,156.8z M463.8,178.6c0.2,2.7,0.6,4.9,1.1,6.6c0.6,1.7,1.4,2.9,2.4,3.7
			s2.4,1.2,4.1,1.2c1.7,0,3.1-0.4,4.1-1.2c1-0.8,1.8-2,2.4-3.7c0.6-1.7,0.9-3.9,1.1-6.6c0.2-2.7,0.3-6,0.3-9.8
			c0-3.8-0.1-7.1-0.3-9.8c-0.2-2.7-0.6-4.9-1.1-6.6c-0.6-1.7-1.4-2.9-2.4-3.7c-1-0.8-2.4-1.2-4.1-1.2c-1.7,0-3.1,0.4-4.1,1.2
			c-1,0.8-1.8,2-2.4,3.7c-0.6,1.7-0.9,3.9-1.1,6.6c-0.2,2.7-0.3,5.9-0.3,9.8C463.6,172.6,463.6,175.9,463.8,178.6z"/>
		<path style="fill:#535353;" d="M508.5,180.1c0,1.4,0.1,2.8,0.3,4c0.2,1.2,0.5,2.2,1,3.1c0.5,0.9,1.2,1.6,2.1,2.1
			c0.9,0.5,2,0.8,3.3,0.8c1.4,0,2.5-0.3,3.4-0.8c0.9-0.5,1.5-1.2,2-2.1c0.5-0.9,0.9-1.9,1-3.1c0.2-1.2,0.3-2.5,0.3-4v-39.8h11.5
			v39.8c0,3.6-0.5,6.6-1.5,9c-1,2.4-2.4,4.3-4.1,5.6c-1.7,1.4-3.7,2.3-5.8,2.8c-2.2,0.5-4.5,0.7-6.8,0.7c-2.3,0-4.6-0.2-6.8-0.6
			c-2.2-0.4-4.1-1.3-5.8-2.6c-1.7-1.3-3.1-3.2-4.1-5.6s-1.5-5.5-1.5-9.4v-39.8h11.5V180.1z"/>
		<path style="fill:#535353;" d="M582.9,150.4c-1-1.9-2.8-2.8-5.4-2.8c-1.4,0-2.6,0.4-3.6,1.2c-0.9,0.8-1.7,2-2.2,3.8
			c-0.5,1.7-0.9,4-1.1,6.8c-0.2,2.8-0.3,6.2-0.3,10.3c0,4.3,0.1,7.8,0.4,10.5c0.3,2.7,0.7,4.7,1.4,6.2c0.6,1.5,1.4,2.5,2.3,3
			c0.9,0.5,2,0.8,3.2,0.8c1,0,2-0.2,2.8-0.5c0.9-0.3,1.6-1,2.3-2.1c0.6-1,1.1-2.5,1.5-4.4c0.4-1.9,0.6-4.4,0.6-7.5h11.5
			c0,3.1-0.2,6-0.7,8.8c-0.5,2.8-1.4,5.2-2.7,7.3c-1.3,2.1-3.1,3.7-5.5,4.9c-2.4,1.2-5.5,1.8-9.2,1.8c-4.3,0-7.8-0.7-10.3-2.1
			c-2.6-1.4-4.5-3.4-5.9-6c-1.4-2.6-2.2-5.7-2.6-9.4c-0.4-3.6-0.6-7.6-0.6-12c0-4.3,0.2-8.3,0.6-12c0.4-3.7,1.3-6.8,2.6-9.4
			c1.4-2.6,3.3-4.7,5.9-6.1c2.6-1.5,6-2.2,10.3-2.2c4.1,0,7.3,0.7,9.7,2c2.4,1.3,4.1,3,5.3,5.1c1.2,2.1,1.9,4.3,2.2,6.6
			c0.3,2.4,0.4,4.6,0.4,6.7h-11.5C584.4,155.3,583.9,152.3,582.9,150.4z"/>
		<path style="fill:#535353;" d="M602.3,156.8c0.4-3.7,1.3-6.8,2.6-9.4c1.4-2.6,3.3-4.7,5.9-6.1c2.6-1.5,6-2.2,10.3-2.2
			s7.8,0.7,10.3,2.2c2.6,1.5,4.5,3.5,5.9,6.1c1.4,2.6,2.2,5.7,2.6,9.4s0.6,7.6,0.6,12c0,4.4-0.2,8.4-0.6,12s-1.3,6.7-2.6,9.4
			c-1.4,2.6-3.3,4.6-5.9,6c-2.6,1.4-6,2.1-10.3,2.1s-7.8-0.7-10.3-2.1c-2.6-1.4-4.5-3.4-5.9-6c-1.4-2.6-2.2-5.7-2.6-9.4
			s-0.6-7.6-0.6-12C601.7,164.5,601.9,160.5,602.3,156.8z M613.5,178.6c0.2,2.7,0.6,4.9,1.1,6.6c0.6,1.7,1.4,2.9,2.4,3.7
			c1,0.8,2.4,1.2,4.1,1.2s3.1-0.4,4.1-1.2c1-0.8,1.8-2,2.4-3.7c0.6-1.7,0.9-3.9,1.1-6.6c0.2-2.7,0.3-6,0.3-9.8
			c0-3.8-0.1-7.1-0.3-9.8c-0.2-2.7-0.6-4.9-1.1-6.6c-0.6-1.7-1.4-2.9-2.4-3.7c-1-0.8-2.4-1.2-4.1-1.2s-3.1,0.4-4.1,1.2
			c-1,0.8-1.8,2-2.4,3.7c-0.6,1.7-0.9,3.9-1.1,6.6c-0.2,2.7-0.3,5.9-0.3,9.8C613.2,172.6,613.3,175.9,613.5,178.6z"/>
		<path style="fill:#535353;" d="M658.2,180.1c0,1.4,0.1,2.8,0.3,4c0.2,1.2,0.5,2.2,1,3.1c0.5,0.9,1.2,1.6,2.1,2.1
			c0.9,0.5,2,0.8,3.3,0.8c1.4,0,2.5-0.3,3.4-0.8c0.9-0.5,1.5-1.2,2-2.1c0.5-0.9,0.9-1.9,1-3.1c0.2-1.2,0.3-2.5,0.3-4v-39.8h11.5
			v39.8c0,3.6-0.5,6.6-1.5,9c-1,2.4-2.4,4.3-4.1,5.6c-1.7,1.4-3.7,2.3-5.8,2.8c-2.2,0.5-4.5,0.7-6.8,0.7c-2.3,0-4.6-0.2-6.8-0.6
			c-2.2-0.4-4.1-1.3-5.8-2.6c-1.7-1.3-3.1-3.2-4.1-5.6s-1.5-5.5-1.5-9.4v-39.8h11.5V180.1z"/>
		<path style="fill:#535353;" d="M690.4,140.2H702v47.7h20.4v9.4h-31.9V140.2z"/>
		<path style="fill:#535353;" d="M746.9,140.2c4,0,7.2,0.7,9.7,2c2.5,1.3,4.4,3.2,5.7,5.6c1.4,2.4,2.3,5.3,2.8,8.8
			c0.5,3.4,0.7,7.2,0.7,11.4c0,5-0.3,9.4-0.9,13.1c-0.6,3.7-1.7,6.8-3.2,9.2c-1.5,2.4-3.5,4.2-6,5.4c-2.5,1.2-5.7,1.8-9.5,1.8H728
			v-57.1H746.9z M744.7,188.9c2,0,3.7-0.3,4.9-1s2.2-1.8,2.9-3.4c0.7-1.6,1.2-3.7,1.4-6.3c0.2-2.6,0.4-5.9,0.4-9.8
			c0-3.3-0.1-6.1-0.3-8.6s-0.7-4.5-1.3-6.1c-0.7-1.6-1.7-2.9-3-3.7c-1.3-0.8-3.1-1.2-5.2-1.2h-4.9v40.2H744.7z"/>
	</g>
	<g style="clip-path:url(#SVGID_2_);">
		<path style="fill:#535353;" d="M323.8,237.2c2.9,0,5.4,0.5,7.4,1.5c2,1,3.6,2.3,4.8,3.9c1.2,1.6,2.1,3.4,2.6,5.5
			c0.5,2.1,0.8,4.1,0.8,6.3c0,2.9-0.4,5.5-1.3,7.7c-0.9,2.2-2.1,4-3.7,5.4c-1.6,1.4-3.5,2.4-5.7,3.1c-2.2,0.7-4.7,1-7.4,1h-6.2v22.8
			h-11.5v-57.1H323.8z M320.2,263.1c2.3,0,4.1-0.7,5.6-2.1c1.4-1.4,2.1-3.5,2.1-6.5c0-2.9-0.6-5.1-1.8-6.6c-1.2-1.5-3.3-2.2-6.2-2.2
			h-4.8v17.4H320.2z"/>
		<path style="fill:#535353;" d="M367.6,237.2l15.1,57.1h-12l-2.6-12.1h-15.2l-2.6,12.1h-12l15.1-57.1H367.6z M366.1,272.8
			l-5.5-25.7h-0.2l-5.5,25.7H366.1z"/>
		<path style="fill:#535353;" d="M399,259.3h0.2l8-22.1h12.5l-14.8,34.6v22.5h-11.5v-22.5l-14.8-34.6h13L399,259.3z"/>
		<path style="fill:#535353;" d="M447.9,237.2l6.3,42.2h0.2l6.7-42.2h11l6.7,42.2h0.2l6.3-42.2h11L486,294.3h-12.9l-6.4-41.4h-0.2
			l-6.4,41.4h-12.9l-10.4-57.1H447.9z"/>
		<path style="fill:#535353;" d="M501.6,237.2h11.5v57.1h-11.5V237.2z"/>
		<path style="fill:#535353;" d="M555.1,246.7h-12.5v47.7h-11.5v-47.7h-12.5v-9.4h36.5V246.7z"/>
		<path style="fill:#535353;" d="M571.6,237.2v21.8H585v-21.8h11.5v57.1H585V269h-13.4v25.4h-11.5v-57.1H571.6z"/>
	</g>
	<g style="clip-path:url(#SVGID_2_);">
		<path style="fill:#008E78;" d="M397.7,382.9c0,6.8-1.6,11.7-4.8,14.6c-3.2,2.9-8,4.4-14.6,4.4c-3.4,0-6.2-0.5-8.4-1.4
			c-2.2-0.9-3.9-2.2-5.2-4c-1.3-1.7-2.2-3.7-2.7-6c-0.5-2.3-0.7-4.7-0.7-7.2v-2.8h11.9v2c0,3.4,0.4,6,1.1,7.6
			c0.7,1.7,2.3,2.5,4.6,2.5c2.3,0,3.9-0.8,4.6-2.5c0.7-1.6,1.1-4.2,1.1-7.6v-45.9h13V382.9z"/>
		<path style="fill:#008E78;" d="M418.3,381.4c0,1.6,0.1,3.1,0.3,4.5c0.2,1.4,0.6,2.5,1.2,3.5c0.6,1,1.4,1.8,2.3,2.3
			c1,0.6,2.2,0.9,3.7,0.9c1.6,0,2.8-0.3,3.8-0.9c1-0.6,1.7-1.4,2.3-2.3c0.6-1,1-2.2,1.2-3.5c0.2-1.3,0.3-2.8,0.3-4.5v-44.8h13v44.8
			c0,4.1-0.6,7.5-1.7,10.1c-1.1,2.7-2.7,4.8-4.6,6.3c-1.9,1.6-4.1,2.6-6.6,3.1c-2.5,0.5-5,0.8-7.6,0.8c-2.6,0-5.2-0.2-7.6-0.7
			c-2.5-0.5-4.7-1.5-6.6-2.9c-1.9-1.5-3.5-3.6-4.6-6.3c-1.1-2.7-1.7-6.2-1.7-10.5v-44.8h13V381.4z"/>
		<path style="fill:#008E78;" d="M465,382.7c0,1.5,0.1,2.9,0.4,4.1c0.2,1.2,0.7,2.3,1.4,3.1c0.7,0.8,1.5,1.5,2.7,2
			c1.1,0.5,2.5,0.7,4.2,0.7c2,0,3.8-0.6,5.4-1.9c1.6-1.3,2.4-3.3,2.4-6c0-1.4-0.2-2.7-0.6-3.7c-0.4-1-1-2-1.9-2.8
			c-0.9-0.8-2.1-1.6-3.6-2.3c-1.5-0.7-3.3-1.4-5.4-2.1c-2.9-1-5.4-2-7.5-3.2c-2.1-1.1-3.9-2.5-5.3-4c-1.4-1.5-2.4-3.3-3.1-5.3
			c-0.7-2-1-4.3-1-7c0-6.4,1.8-11.1,5.3-14.2c3.5-3.1,8.4-4.7,14.6-4.7c2.9,0,5.5,0.3,8,0.9s4.5,1.7,6.3,3.1
			c1.8,1.4,3.1,3.2,4.1,5.4c1,2.2,1.5,4.8,1.5,7.9v1.8h-12.4c0-3.1-0.5-5.4-1.6-7.1c-1.1-1.6-2.9-2.5-5.4-2.5
			c-1.4,0-2.6,0.2-3.6,0.6c-1,0.4-1.7,1-2.3,1.7c-0.6,0.7-1,1.5-1.2,2.4c-0.2,0.9-0.3,1.8-0.3,2.8c0,2,0.4,3.6,1.3,5
			c0.8,1.3,2.6,2.6,5.4,3.7l10,4.3c2.5,1.1,4.5,2.2,6,3.4c1.6,1.2,2.8,2.4,3.7,3.8c0.9,1.3,1.6,2.8,1.9,4.5c0.4,1.6,0.5,3.4,0.5,5.4
			c0,6.8-2,11.7-5.9,14.8c-3.9,3.1-9.4,4.6-16.4,4.6c-7.3,0-12.6-1.6-15.7-4.8c-3.2-3.2-4.7-7.7-4.7-13.7v-2.6h13V382.7z"/>
		<path style="fill:#008E78;" d="M538.9,347.2h-14v53.6h-13v-53.6h-14v-10.6h41V347.2z"/>
	</g>
	<g style="clip-path:url(#SVGID_2_);">
	</g>
	<g style="clip-path:url(#SVGID_2_);">
		<path style="fill:#DB4FEC;" d="M305.6,445.6l17,64.3h-13.5l-3-13.6h-17.1l-3,13.6h-13.5l17-64.3H305.6z M303.9,485.6l-6.2-28.9
			h-0.2l-6.2,28.9H303.9z"/>
		<path style="fill:#DB4FEC;" d="M359.2,491.7c0,1.5,0.1,2.9,0.4,4.1c0.2,1.2,0.7,2.3,1.4,3.1c0.7,0.8,1.5,1.5,2.7,2
			c1.1,0.5,2.5,0.7,4.2,0.7c2,0,3.8-0.6,5.4-1.9c1.6-1.3,2.4-3.3,2.4-6c0-1.4-0.2-2.7-0.6-3.7c-0.4-1-1-2-1.9-2.8
			c-0.9-0.8-2.1-1.6-3.6-2.3c-1.5-0.7-3.3-1.4-5.4-2.1c-2.9-1-5.4-2-7.5-3.2c-2.1-1.1-3.9-2.5-5.3-4c-1.4-1.5-2.4-3.3-3.1-5.3
			c-0.7-2-1-4.3-1-7c0-6.4,1.8-11.1,5.3-14.2c3.5-3.1,8.4-4.7,14.6-4.7c2.9,0,5.5,0.3,8,0.9c2.4,0.6,4.5,1.7,6.3,3.1
			c1.8,1.4,3.1,3.2,4.1,5.4c1,2.2,1.5,4.8,1.5,7.9v1.8h-12.4c0-3.1-0.5-5.4-1.6-7.1c-1.1-1.6-2.9-2.5-5.4-2.5
			c-1.4,0-2.6,0.2-3.6,0.6c-1,0.4-1.7,1-2.3,1.7c-0.6,0.7-1,1.5-1.2,2.4c-0.2,0.9-0.3,1.8-0.3,2.8c0,2,0.4,3.6,1.3,5
			c0.8,1.3,2.6,2.6,5.4,3.7l10,4.3c2.5,1.1,4.5,2.2,6,3.4c1.6,1.2,2.8,2.4,3.7,3.8c0.9,1.3,1.6,2.8,1.9,4.5c0.4,1.6,0.5,3.4,0.5,5.4
			c0,6.8-2,11.7-5.9,14.8c-3.9,3.1-9.4,4.6-16.4,4.6c-7.3,0-12.6-1.6-15.7-4.8c-3.1-3.2-4.7-7.7-4.7-13.7v-2.6h13V491.7z"/>
		<path style="fill:#DB4FEC;" d="M431.4,456.2h-23v15.1H430V482h-21.6v17.3h23.9v10.6h-36.8v-64.3h35.9V456.2z"/>
		<path style="fill:#DB4FEC;" d="M438.7,445.6h13v53.6h23v10.6h-35.9V445.6z"/>
		<path style="fill:#DB4FEC;" d="M516.3,445.6v10.6h-23v15.1H515V482h-21.6v27.9h-13v-64.3H516.3z"/>
		<path style="fill:#DB4FEC;" d="M522.7,445.6h13v64.3h-13V445.6z"/>
		<path style="fill:#DB4FEC;" d="M581.2,456.2h-23v15.1h21.6V482h-21.6v17.3h23.9v10.6h-36.8v-64.3h35.9V456.2z"/>
		<path style="fill:#DB4FEC;" d="M587.3,463.4c0-2.7,0.4-5.2,1.1-7.5c0.8-2.3,1.9-4.2,3.3-5.8c1.5-1.6,3.3-2.9,5.6-3.8
			c2.2-0.9,4.8-1.4,7.8-1.4c6.4,0,11.1,1.6,14.3,4.7c3.1,3.1,4.7,7.4,4.7,12.6c0,2.5-0.4,4.9-1.2,7s-2.3,4.5-4.5,7l-3.6,4.1
			c-1.6,1.7-2.7,3.3-3.4,4.8s-1,3.3-1,5.6v1.3h-11.2v-3.5c0-3,0.4-5.5,1.3-7.6c0.8-2.1,2.3-4.2,4.3-6.5l3.4-3.9
			c1.3-1.4,2.1-2.9,2.7-4.5c0.5-1.6,0.8-3.3,0.8-5.1c0-2.3-0.5-4.1-1.5-5.5c-1-1.4-2.6-2.1-4.6-2.1c-2.3,0-3.9,0.9-4.9,2.7
			c-1,1.8-1.5,4.2-1.5,7.2v2.2h-11.9V463.4z M611.1,509.9h-12.4V498h12.4V509.9z"/>
	</g>
</g>
</svg>
