<?xml version="1.0" encoding="utf-8"?>
<!-- Generator: Adobe Illustrator 15.0.2, SVG Export Plug-In . SVG Version: 6.00 Build 0)  -->
<!DOCTYPE svg PUBLIC "-//W3C//DTD SVG 1.1//EN" "http://www.w3.org/Graphics/SVG/1.1/DTD/svg11.dtd">
<svg version="1.1" id="Layer_1" xmlns="http://www.w3.org/2000/svg" xmlns:xlink="http://www.w3.org/1999/xlink" x="0px" y="0px"
	 width="900px" height="650px" viewBox="0 0 900 650" style="enable-background:new 0 0 900 650;" xml:space="preserve">
<g>
	<defs>
		<rect id="SVGID_1_" width="900" height="650"/>
	</defs>
	<clipPath id="SVGID_2_">
		<use xlink:href="#SVGID_1_"  style="overflow:visible;"/>
	</clipPath>
	<g style="clip-path:url(#SVGID_2_);">
		<path style="fill:#535353;" d="M178.7,140.5c4,0,7.2,0.7,9.7,2c2.5,1.3,4.4,3.2,5.7,5.6c1.4,2.4,2.3,5.3,2.8,8.8s0.7,7.2,0.7,11.4
			c0,5-0.3,9.4-0.9,13.1c-0.6,3.7-1.7,6.8-3.2,9.2c-1.5,2.4-3.5,4.2-6,5.4c-2.5,1.2-5.7,1.8-9.5,1.8h-18.2v-57.1H178.7z
			 M176.4,189.1c2,0,3.7-0.3,4.9-1c1.2-0.7,2.2-1.8,2.9-3.4s1.2-3.7,1.4-6.3c0.2-2.6,0.4-5.9,0.4-9.8c0-3.3-0.1-6.1-0.3-8.6
			c-0.2-2.5-0.7-4.5-1.3-6.1c-0.7-1.6-1.7-2.9-3-3.7c-1.3-0.8-3.1-1.2-5.2-1.2h-4.9v40.2H176.4z"/>
		<path style="fill:#535353;" d="M204.6,157.1c0.4-3.7,1.3-6.8,2.6-9.4c1.4-2.6,3.3-4.7,5.9-6.1c2.6-1.5,6-2.2,10.3-2.2
			c4.3,0,7.8,0.7,10.3,2.2c2.6,1.5,4.5,3.5,5.9,6.1c1.4,2.6,2.2,5.7,2.6,9.4s0.6,7.6,0.6,12c0,4.4-0.2,8.4-0.6,12s-1.3,6.7-2.6,9.4
			c-1.4,2.6-3.3,4.6-5.9,6c-2.6,1.4-6,2.1-10.3,2.1c-4.3,0-7.8-0.7-10.3-2.1c-2.6-1.4-4.5-3.4-5.9-6c-1.4-2.6-2.2-5.7-2.6-9.4
			s-0.6-7.6-0.6-12C204,164.7,204.2,160.7,204.6,157.1z M215.8,178.8c0.2,2.7,0.6,4.9,1.1,6.6c0.6,1.7,1.4,2.9,2.4,3.7
			s2.4,1.2,4.1,1.2c1.7,0,3.1-0.4,4.1-1.2s1.8-2,2.4-3.7c0.6-1.7,0.9-3.9,1.1-6.6c0.2-2.7,0.3-6,0.3-9.8c0-3.8-0.1-7.1-0.3-9.8
			c-0.2-2.7-0.6-4.9-1.1-6.6c-0.6-1.7-1.4-2.9-2.4-3.7c-1-0.8-2.4-1.2-4.1-1.2c-1.7,0-3.1,0.4-4.1,1.2c-1,0.8-1.8,2-2.4,3.7
			c-0.6,1.7-0.9,3.9-1.1,6.6c-0.2,2.7-0.3,5.9-0.3,9.8C215.5,172.9,215.6,176.2,215.8,178.8z"/>
		<path style="fill:#535353;" d="M282.7,162.6h0.2l8-22.1h12.5l-14.8,34.6v22.5H277v-22.5l-14.8-34.6h13L282.7,162.6z"/>
		<path style="fill:#535353;" d="M307,157.1c0.4-3.7,1.3-6.8,2.6-9.4c1.4-2.6,3.3-4.7,5.9-6.1c2.6-1.5,6-2.2,10.3-2.2
			c4.3,0,7.8,0.7,10.3,2.2c2.6,1.5,4.5,3.5,5.9,6.1c1.4,2.6,2.2,5.7,2.6,9.4s0.6,7.6,0.6,12c0,4.4-0.2,8.4-0.6,12s-1.3,6.7-2.6,9.4
			c-1.4,2.6-3.3,4.6-5.9,6c-2.6,1.4-6,2.1-10.3,2.1c-4.3,0-7.8-0.7-10.3-2.1c-2.6-1.4-4.5-3.4-5.9-6c-1.4-2.6-2.2-5.7-2.6-9.4
			s-0.6-7.6-0.6-12C306.4,164.7,306.6,160.7,307,157.1z M318.2,178.8c0.2,2.7,0.6,4.9,1.1,6.6c0.6,1.7,1.4,2.9,2.4,3.7
			s2.4,1.2,4.1,1.2c1.7,0,3.1-0.4,4.1-1.2s1.8-2,2.4-3.7c0.6-1.7,0.9-3.9,1.1-6.6c0.2-2.7,0.3-6,0.3-9.8c0-3.8-0.1-7.1-0.3-9.8
			c-0.2-2.7-0.6-4.9-1.1-6.6c-0.6-1.7-1.4-2.9-2.4-3.7c-1-0.8-2.4-1.2-4.1-1.2c-1.7,0-3.1,0.4-4.1,1.2c-1,0.8-1.8,2-2.4,3.7
			c-0.6,1.7-0.9,3.9-1.1,6.6c-0.2,2.7-0.3,5.9-0.3,9.8C317.9,172.9,318,176.2,318.2,178.8z"/>
		<path style="fill:#535353;" d="M362.8,180.3c0,1.4,0.1,2.8,0.3,4c0.2,1.2,0.5,2.2,1,3.1c0.5,0.9,1.2,1.6,2.1,2.1
			c0.9,0.5,2,0.8,3.3,0.8c1.4,0,2.5-0.3,3.4-0.8c0.9-0.5,1.5-1.2,2-2.1c0.5-0.9,0.9-1.9,1-3.1c0.2-1.2,0.3-2.5,0.3-4v-39.8h11.5
			v39.8c0,3.6-0.5,6.6-1.5,9c-1,2.4-2.4,4.3-4.1,5.6c-1.7,1.4-3.7,2.3-5.8,2.8c-2.2,0.5-4.5,0.7-6.8,0.7c-2.3,0-4.6-0.2-6.8-0.6
			c-2.2-0.4-4.1-1.3-5.8-2.6c-1.7-1.3-3.1-3.2-4.1-5.6c-1-2.4-1.5-5.5-1.5-9.4v-39.8h11.5V180.3z"/>
		<path style="fill:#535353;" d="M414.8,140.5h11.5v57.1h-11.5V140.5z"/>
		<path style="fill:#535353;" d="M452.3,140.5l8.2,40.3h0.2l8.2-40.3h17v57.1h-10.6V152h-0.2L465,197.6h-9L445.9,152h-0.2v45.6
			h-10.6v-57.1H452.3z"/>
		<path style="fill:#535353;" d="M519.5,140.5l15.1,57.1h-12l-2.6-12.1h-15.2l-2.6,12.1h-12l15.1-57.1H519.5z M518,176.1l-5.5-25.7
			h-0.2l-5.5,25.7H518z"/>
		<path style="fill:#535353;" d="M563.6,154.2c-0.2-1.1-0.6-2.1-1.2-3.1c-0.5-0.9-1.2-1.7-2-2.3c-0.8-0.6-1.8-0.9-3-0.9
			c-2.8,0-4.8,1.5-6,4.6c-1.2,3.1-1.8,8.2-1.8,15.4c0,3.4,0.1,6.5,0.3,9.3c0.2,2.8,0.6,5.1,1.2,7.1c0.6,1.9,1.4,3.4,2.4,4.5
			c1,1,2.4,1.6,4,1.6c0.7,0,1.5-0.2,2.3-0.6c0.8-0.4,1.6-0.9,2.3-1.7s1.3-1.7,1.8-2.8c0.5-1.1,0.7-2.5,0.7-4v-5.8H557v-8.5h18.6
			v30.8h-8.5v-5.3H567c-1.4,2.2-3.1,3.8-5,4.8c-1.9,0.9-4.3,1.4-7,1.4c-3.5,0-6.4-0.6-8.6-1.8s-3.9-3.1-5.2-5.7
			c-1.3-2.6-2.1-5.7-2.5-9.5c-0.4-3.8-0.6-8.1-0.6-13.1c0-4.8,0.3-9,0.9-12.6c0.6-3.6,1.7-6.7,3.2-9.1c1.5-2.4,3.5-4.3,5.9-5.5
			c2.5-1.2,5.5-1.8,9.2-1.8c6.3,0,10.8,1.6,13.6,4.7c2.8,3.1,4.2,7.6,4.2,13.4h-11C564,156.4,563.8,155.3,563.6,154.2z"/>
		<path style="fill:#535353;" d="M583.6,140.5h11.5v57.1h-11.5V140.5z"/>
		<path style="fill:#535353;" d="M630.9,179.6h0.2v-39.1h10.6v57.1h-13.1l-14.1-40h-0.2v40h-10.6v-57.1H617L630.9,179.6z"/>
		<path style="fill:#535353;" d="M681.6,149.9h-20.4v13.4h19.2v9.4h-19.2v15.4h21.2v9.4h-32.7v-57.1h31.9V149.9z"/>
		<path style="fill:#535353;" d="M729.8,140.5l15.1,57.1h-12l-2.6-12.1h-15.2l-2.6,12.1h-12l15.1-57.1H729.8z M728.3,176.1
			l-5.5-25.7h-0.2l-5.5,25.7H728.3z"/>
	</g>
	<g style="clip-path:url(#SVGID_2_);">
		<path style="fill:#535353;" d="M65.3,237.5l6.3,42.2h0.2l6.7-42.2h11l6.7,42.2h0.2l6.3-42.2h11l-10.4,57.1H90.5l-6.4-41.4h-0.2
			l-6.4,41.4H64.6l-10.4-57.1H65.3z"/>
		<path style="fill:#535353;" d="M117.8,254.1c0.4-3.7,1.3-6.8,2.6-9.4c1.4-2.6,3.3-4.7,5.9-6.1c2.6-1.5,6-2.2,10.3-2.2
			c4.3,0,7.8,0.7,10.3,2.2c2.6,1.5,4.5,3.5,5.9,6.1c1.4,2.6,2.2,5.7,2.6,9.4s0.6,7.6,0.6,12c0,4.4-0.2,8.4-0.6,12s-1.3,6.7-2.6,9.4
			c-1.4,2.6-3.3,4.6-5.9,6c-2.6,1.4-6,2.1-10.3,2.1c-4.3,0-7.8-0.7-10.3-2.1c-2.6-1.4-4.5-3.4-5.9-6c-1.4-2.6-2.2-5.7-2.6-9.4
			s-0.6-7.6-0.6-12C117.2,261.7,117.4,257.7,117.8,254.1z M129,275.8c0.2,2.7,0.6,4.9,1.1,6.6c0.6,1.7,1.4,2.9,2.4,3.7
			s2.4,1.2,4.1,1.2c1.7,0,3.1-0.4,4.1-1.2s1.8-2,2.4-3.7c0.6-1.7,0.9-3.9,1.1-6.6c0.2-2.7,0.3-6,0.3-9.8c0-3.8-0.1-7.1-0.3-9.8
			c-0.2-2.7-0.6-4.9-1.1-6.6c-0.6-1.7-1.4-2.9-2.4-3.7c-1-0.8-2.4-1.2-4.1-1.2c-1.7,0-3.1,0.4-4.1,1.2c-1,0.8-1.8,2-2.4,3.7
			c-0.6,1.7-0.9,3.9-1.1,6.6c-0.2,2.7-0.3,5.9-0.3,9.8C128.7,269.9,128.8,273.2,129,275.8z"/>
		<path style="fill:#535353;" d="M184.2,237.5c4.8,0,8.5,1.2,11.2,3.6c2.7,2.4,4,6.1,4,11.1c0,3.8-0.8,7-2.3,9.4
			c-1.5,2.4-3.9,4-7.2,4.7v0.2c2.9,0.4,5,1.4,6.3,2.8c1.3,1.4,2.2,3.8,2.5,7c0.1,1.1,0.2,2.2,0.2,3.5c0.1,1.3,0.1,2.7,0.2,4.2
			c0.1,3,0.3,5.4,0.5,7c0.3,1.6,1,2.7,2.1,3.3v0.5h-12.5c-0.6-0.8-1-1.7-1.1-2.8c-0.2-1-0.3-2.1-0.3-3.2l-0.3-11
			c-0.1-2.2-0.7-4-1.7-5.3c-1-1.3-2.7-1.9-5.1-1.9h-6.2v24.2h-11.5v-57.1H184.2z M179.2,262.4c2.8,0,4.9-0.7,6.4-2
			c1.5-1.3,2.2-3.5,2.2-6.6c0-5.3-2.7-7.9-8-7.9h-5.4v16.5H179.2z"/>
		<path style="fill:#535353;" d="M207.4,237.5h11.5v47.7h20.4v9.4h-31.9V237.5z"/>
		<path style="fill:#535353;" d="M263.8,237.5c4,0,7.2,0.7,9.7,2c2.5,1.3,4.4,3.2,5.7,5.6c1.4,2.4,2.3,5.3,2.8,8.8s0.7,7.2,0.7,11.4
			c0,5-0.3,9.4-0.9,13.1c-0.6,3.7-1.7,6.8-3.2,9.2c-1.5,2.4-3.5,4.2-6,5.4c-2.5,1.2-5.7,1.8-9.5,1.8H245v-57.1H263.8z M261.6,286.1
			c2,0,3.7-0.3,4.9-1c1.2-0.7,2.2-1.8,2.9-3.4s1.2-3.7,1.4-6.3c0.2-2.6,0.4-5.9,0.4-9.8c0-3.3-0.1-6.1-0.3-8.6
			c-0.2-2.5-0.7-4.5-1.3-6.1c-0.7-1.6-1.7-2.9-3-3.7c-1.3-0.8-3.1-1.2-5.2-1.2h-4.9v40.2H261.6z"/>
		<path style="fill:#535353;" d="M314.3,237.5l6.3,42.2h0.2l6.7-42.2h11l6.7,42.2h0.2l6.3-42.2h11l-10.4,57.1h-12.9l-6.4-41.4H333
			l-6.4,41.4h-12.9l-10.4-57.1H314.3z"/>
		<path style="fill:#535353;" d="M379,237.5v21.8h13.4v-21.8h11.5v57.1h-11.5v-25.4H379v25.4h-11.5v-57.1H379z"/>
		<path style="fill:#535353;" d="M443.8,246.9h-20.4v13.4h19.2v9.4h-19.2v15.4h21.2v9.4h-32.7v-57.1h31.9V246.9z"/>
		<path style="fill:#535353;" d="M471.7,237.5c4.8,0,8.5,1.2,11.2,3.6c2.7,2.4,4,6.1,4,11.1c0,3.8-0.8,7-2.3,9.4
			c-1.5,2.4-3.9,4-7.2,4.7v0.2c2.9,0.4,5,1.4,6.3,2.8c1.3,1.4,2.2,3.8,2.5,7c0.1,1.1,0.2,2.2,0.2,3.5c0.1,1.3,0.1,2.7,0.2,4.2
			c0.1,3,0.3,5.4,0.5,7c0.3,1.6,1,2.7,2.1,3.3v0.5h-12.5c-0.6-0.8-1-1.7-1.1-2.8c-0.2-1-0.3-2.1-0.3-3.2l-0.3-11
			c-0.1-2.2-0.7-4-1.7-5.3c-1-1.3-2.7-1.9-5.1-1.9h-6.2v24.2h-11.5v-57.1H471.7z M466.7,262.4c2.8,0,4.9-0.7,6.4-2
			c1.5-1.3,2.2-3.5,2.2-6.6c0-5.3-2.7-7.9-8-7.9h-5.4v16.5H466.7z"/>
		<path style="fill:#535353;" d="M526.8,246.9h-20.4v13.4h19.2v9.4h-19.2v15.4h21.2v9.4h-32.7v-57.1h31.9V246.9z"/>
		<path style="fill:#535353;" d="M585.6,259.6h0.2l8-22.1h12.5l-14.8,34.6v22.5h-11.5v-22.5l-14.8-34.6h13L585.6,259.6z"/>
		<path style="fill:#535353;" d="M609.9,254.1c0.4-3.7,1.3-6.8,2.6-9.4c1.4-2.6,3.3-4.7,5.9-6.1c2.6-1.5,6-2.2,10.3-2.2
			s7.8,0.7,10.3,2.2c2.6,1.5,4.5,3.5,5.9,6.1c1.4,2.6,2.2,5.7,2.6,9.4s0.6,7.6,0.6,12c0,4.4-0.2,8.4-0.6,12s-1.3,6.7-2.6,9.4
			c-1.4,2.6-3.3,4.6-5.9,6c-2.6,1.4-6,2.1-10.3,2.1s-7.8-0.7-10.3-2.1c-2.6-1.4-4.5-3.4-5.9-6c-1.4-2.6-2.2-5.7-2.6-9.4
			s-0.6-7.6-0.6-12C609.3,261.7,609.5,257.7,609.9,254.1z M621.1,275.8c0.2,2.7,0.6,4.9,1.1,6.6c0.6,1.7,1.4,2.9,2.4,3.7
			c1,0.8,2.4,1.2,4.1,1.2s3.1-0.4,4.1-1.2c1-0.8,1.8-2,2.4-3.7c0.6-1.7,0.9-3.9,1.1-6.6c0.2-2.7,0.3-6,0.3-9.8
			c0-3.8-0.1-7.1-0.3-9.8c-0.2-2.7-0.6-4.9-1.1-6.6c-0.6-1.7-1.4-2.9-2.4-3.7c-1-0.8-2.4-1.2-4.1-1.2s-3.1,0.4-4.1,1.2
			c-1,0.8-1.8,2-2.4,3.7c-0.6,1.7-0.9,3.9-1.1,6.6c-0.2,2.7-0.3,5.9-0.3,9.8C620.8,269.9,620.9,273.2,621.1,275.8z"/>
		<path style="fill:#535353;" d="M665.8,277.3c0,1.4,0.1,2.8,0.3,4c0.2,1.2,0.5,2.2,1,3.1c0.5,0.9,1.2,1.6,2.1,2.1
			c0.9,0.5,2,0.8,3.3,0.8c1.4,0,2.5-0.3,3.4-0.8c0.9-0.5,1.5-1.2,2-2.1c0.5-0.9,0.9-1.9,1-3.1c0.2-1.2,0.3-2.5,0.3-4v-39.8h11.5
			v39.8c0,3.6-0.5,6.6-1.5,9c-1,2.4-2.4,4.3-4.1,5.6c-1.7,1.4-3.7,2.3-5.8,2.8c-2.2,0.5-4.5,0.7-6.8,0.7c-2.3,0-4.6-0.2-6.8-0.6
			c-2.2-0.4-4.1-1.3-5.8-2.6c-1.7-1.3-3.1-3.2-4.1-5.6s-1.5-5.5-1.5-9.4v-39.8h11.5V277.3z"/>
		<path style="fill:#535353;" d="M740.1,247.7c-1-1.9-2.8-2.8-5.4-2.8c-1.4,0-2.6,0.4-3.6,1.2c-0.9,0.8-1.7,2-2.2,3.8
			c-0.5,1.7-0.9,4-1.1,6.8c-0.2,2.8-0.3,6.2-0.3,10.3c0,4.3,0.1,7.8,0.4,10.5c0.3,2.7,0.7,4.7,1.4,6.2c0.6,1.5,1.4,2.5,2.3,3
			c0.9,0.5,2,0.8,3.2,0.8c1,0,2-0.2,2.8-0.5c0.9-0.3,1.6-1,2.3-2.1s1.1-2.5,1.5-4.4c0.4-1.9,0.6-4.4,0.6-7.5h11.5
			c0,3.1-0.2,6-0.7,8.8c-0.5,2.8-1.4,5.2-2.7,7.3s-3.1,3.7-5.5,4.9s-5.5,1.8-9.2,1.8c-4.3,0-7.8-0.7-10.3-2.1
			c-2.6-1.4-4.5-3.4-5.9-6c-1.4-2.6-2.2-5.7-2.6-9.4s-0.6-7.6-0.6-12c0-4.3,0.2-8.3,0.6-12s1.3-6.8,2.6-9.4c1.4-2.6,3.3-4.7,5.9-6.1
			c2.6-1.5,6-2.2,10.3-2.2c4.1,0,7.3,0.7,9.7,2c2.4,1.3,4.1,3,5.3,5.1c1.2,2.1,1.9,4.3,2.2,6.6s0.4,4.6,0.4,6.7h-11.5
			C741.6,252.6,741.1,249.6,740.1,247.7z"/>
		<path style="fill:#535353;" d="M785.5,237.5l15.1,57.1h-12l-2.6-12.1h-15.2l-2.6,12.1h-12l15.1-57.1H785.5z M784,273.1l-5.5-25.7
			h-0.2l-5.5,25.7H784z"/>
		<path style="fill:#535353;" d="M831.8,276.6h0.2v-39.1h10.6v57.1h-13.1l-14.1-40h-0.2v40h-10.6v-57.1h13.3L831.8,276.6z"/>
	</g>
	<g style="clip-path:url(#SVGID_2_);">
		<path style="fill:#008E78;" d="M237.2,336.9c3.3,0,6.1,0.6,8.3,1.7c2.2,1.1,4.1,2.6,5.4,4.4c1.4,1.8,2.4,3.9,3,6.2
			c0.6,2.3,0.9,4.7,0.9,7.1c0,3.3-0.5,6.2-1.5,8.6c-1,2.5-2.4,4.5-4.1,6c-1.8,1.6-3.9,2.7-6.4,3.5c-2.5,0.8-5.3,1.2-8.4,1.2h-6.9
			v25.7h-13v-64.3H237.2z M233.2,365.9c2.6,0,4.7-0.8,6.3-2.3c1.6-1.6,2.4-4,2.4-7.3c0-3.2-0.7-5.7-2.1-7.4
			c-1.4-1.7-3.7-2.5-6.9-2.5h-5.4v19.5H233.2z"/>
		<path style="fill:#008E78;" d="M286.4,336.9l17,64.3h-13.5l-3-13.6h-17.1l-3,13.6h-13.5l17-64.3H286.4z M284.7,376.9l-6.2-28.9
			h-0.2l-6.2,28.9H284.7z"/>
		<path style="fill:#008E78;" d="M321.8,361.7h0.2l9-24.8h14l-16.6,39v25.3h-13v-25.3l-16.6-39h14.6L321.8,361.7z"/>
	</g>
	<g style="clip-path:url(#SVGID_2_);">
	</g>
	<g style="clip-path:url(#SVGID_2_);">
		<path style="fill:#008E78;" d="M376.7,336.9l7.1,47.5h0.2l7.6-47.5h12.4l7.6,47.5h0.2l7.1-47.5h12.4l-11.7,64.3H405l-7.2-46.6
			h-0.2l-7.2,46.6h-14.5l-11.7-64.3H376.7z"/>
		<path style="fill:#008E78;" d="M437,336.9h13v64.3h-13V336.9z"/>
		<path style="fill:#008E78;" d="M497.2,347.5h-14v53.6h-13v-53.6h-14v-10.6h41V347.5z"/>
		<path style="fill:#008E78;" d="M515.8,336.9v24.6h15.1v-24.6h13v64.3h-13v-28.5h-15.1v28.5h-13v-64.3H515.8z"/>
		<path style="fill:#008E78;" d="M552.2,355.5c0.5-4.1,1.4-7.6,3-10.6c1.5-2.9,3.7-5.2,6.6-6.9c2.9-1.6,6.8-2.5,11.6-2.5
			c4.9,0,8.7,0.8,11.6,2.5c2.9,1.7,5.1,3.9,6.6,6.9c1.5,2.9,2.5,6.5,3,10.6c0.5,4.1,0.7,8.6,0.7,13.5c0,4.9-0.2,9.4-0.7,13.5
			c-0.4,4.1-1.4,7.6-3,10.5c-1.5,2.9-3.7,5.2-6.6,6.8s-6.8,2.3-11.6,2.3c-4.9,0-8.7-0.8-11.6-2.3c-2.9-1.6-5.1-3.8-6.6-6.8
			c-1.5-2.9-2.5-6.4-3-10.5c-0.5-4.1-0.7-8.6-0.7-13.5C551.5,364.1,551.7,359.6,552.2,355.5z M564.8,380c0.2,3,0.6,5.5,1.3,7.4
			c0.6,1.9,1.5,3.3,2.7,4.1c1.2,0.9,2.7,1.3,4.6,1.3s3.5-0.4,4.6-1.3c1.2-0.9,2.1-2.2,2.7-4.1c0.6-1.9,1-4.3,1.3-7.4
			c0.2-3,0.3-6.7,0.3-11s-0.1-8-0.3-11c-0.2-3-0.6-5.5-1.3-7.4c-0.6-1.9-1.5-3.3-2.7-4.2c-1.2-0.9-2.7-1.3-4.6-1.3s-3.5,0.4-4.6,1.3
			c-1.2,0.9-2.1,2.3-2.7,4.2c-0.6,1.9-1.1,4.4-1.3,7.4c-0.2,3-0.3,6.7-0.3,11S564.6,377,564.8,380z"/>
		<path style="fill:#008E78;" d="M615.1,381.7c0,1.6,0.1,3.1,0.3,4.5c0.2,1.4,0.6,2.5,1.2,3.5c0.6,1,1.4,1.8,2.3,2.3
			c1,0.6,2.2,0.9,3.7,0.9c1.6,0,2.8-0.3,3.8-0.9c1-0.6,1.7-1.4,2.3-2.3c0.6-1,1-2.2,1.2-3.5c0.2-1.3,0.3-2.8,0.3-4.5v-44.8h13v44.8
			c0,4.1-0.6,7.5-1.7,10.1c-1.1,2.7-2.7,4.8-4.6,6.3c-1.9,1.6-4.1,2.6-6.6,3.1c-2.5,0.5-5,0.8-7.6,0.8c-2.6,0-5.2-0.2-7.7-0.7
			c-2.5-0.5-4.7-1.5-6.6-2.9c-1.9-1.5-3.5-3.6-4.6-6.3c-1.1-2.7-1.7-6.2-1.7-10.5v-44.8h13V381.7z"/>
		<path style="fill:#008E78;" d="M688.9,347.5h-14v53.6h-13v-53.6h-14v-10.6h41V347.5z"/>
	</g>
	<g style="clip-path:url(#SVGID_2_);">
	</g>
	<g style="clip-path:url(#SVGID_2_);">
		<path style="fill:#DB4FEC;" d="M147.1,445.9l17,64.3h-13.5l-3-13.6h-17.1l-3,13.6h-13.5l17-64.3H147.1z M145.4,485.9l-6.2-28.9
			h-0.2l-6.2,28.9H145.4z"/>
		<path style="fill:#DB4FEC;" d="M199.3,489.9h0.2v-44h11.9v64.3h-14.8l-15.8-45h-0.2v45h-11.9v-64.3h14.9L199.3,489.9z"/>
		<path style="fill:#DB4FEC;" d="M239.1,470.7h0.2l9-24.8h14l-16.6,39v25.3h-13v-25.3l-16.6-39h14.6L239.1,470.7z"/>
		<path style="fill:#DB4FEC;" d="M310.4,445.9c2.6,0,5.1,0.3,7.3,0.8s4.2,1.4,5.8,2.7s2.9,2.9,3.8,5c0.9,2.1,1.4,4.7,1.4,7.7
			c0,3.5-0.8,6.5-2.4,9c-1.6,2.5-4,4.2-7.3,5.1v0.2c3.6,0.5,6.4,2,8.5,4.6c2.1,2.6,3.1,6,3.1,10.4c0,2.5-0.3,4.9-1,7.2
			c-0.7,2.3-1.8,4.3-3.4,6c-1.6,1.7-3.7,3.1-6.2,4.1c-2.6,1-5.7,1.5-9.5,1.5h-21.9v-64.3H310.4z M305.4,472.2c3.6,0,6.2-0.6,7.9-1.9
			c1.6-1.3,2.5-3.5,2.5-6.5c0-3.1-0.8-5.2-2.2-6.5c-1.5-1.3-3.9-1.9-7.1-1.9h-4.7v16.8H305.4z M306.7,500.6c3.1,0,5.6-0.7,7.6-2.1
			c1.9-1.4,2.9-3.9,2.9-7.6c0-1.9-0.3-3.4-0.8-4.6c-0.5-1.2-1.2-2.2-2.1-3c-0.9-0.7-1.9-1.3-3.1-1.6c-1.2-0.3-2.5-0.4-4-0.4h-5.6
			v19.3H306.7z"/>
		<path style="fill:#DB4FEC;" d="M374.7,456.5h-23v15.1h21.6v10.6h-21.6v17.3h23.9v10.6h-36.8v-64.3h35.9V456.5z"/>
		<path style="fill:#DB4FEC;" d="M382,445.9h13v53.6h23v10.6H382V445.9z"/>
		<path style="fill:#DB4FEC;" d="M423,464.5c0.4-4.1,1.4-7.6,3-10.6c1.5-2.9,3.7-5.2,6.6-6.9c2.9-1.6,6.8-2.5,11.6-2.5
			s8.7,0.8,11.6,2.5c2.9,1.7,5.1,3.9,6.6,6.9c1.5,2.9,2.5,6.5,3,10.6c0.5,4.1,0.7,8.6,0.7,13.5c0,4.9-0.2,9.4-0.7,13.5
			c-0.5,4.1-1.4,7.6-3,10.5c-1.5,2.9-3.7,5.2-6.6,6.8s-6.8,2.3-11.6,2.3s-8.7-0.8-11.6-2.3c-2.9-1.6-5.1-3.8-6.6-6.8
			c-1.5-2.9-2.5-6.4-3-10.5c-0.5-4.1-0.7-8.6-0.7-13.5C422.4,473.1,422.6,468.6,423,464.5z M435.6,489c0.2,3,0.6,5.5,1.3,7.4
			c0.6,1.9,1.5,3.3,2.7,4.1c1.2,0.9,2.7,1.3,4.6,1.3c1.9,0,3.5-0.4,4.6-1.3c1.2-0.9,2.1-2.2,2.7-4.1c0.6-1.9,1-4.3,1.3-7.4
			c0.2-3,0.3-6.7,0.3-11s-0.1-8-0.3-11c-0.2-3-0.6-5.5-1.3-7.4c-0.6-1.9-1.5-3.3-2.7-4.2c-1.2-0.9-2.7-1.3-4.6-1.3
			c-1.9,0-3.5,0.4-4.6,1.3c-1.2,0.9-2.1,2.3-2.7,4.2c-0.6,1.9-1.1,4.4-1.3,7.4c-0.2,3-0.3,6.7-0.3,11S435.4,486,435.6,489z"/>
		<path style="fill:#DB4FEC;" d="M504.4,489.9h0.2v-44h11.9v64.3h-14.8l-15.8-45h-0.2v45h-11.9v-64.3h14.9L504.4,489.9z"/>
		<path style="fill:#DB4FEC;" d="M553.5,461.2c-0.3-1.3-0.7-2.4-1.3-3.5c-0.6-1-1.4-1.9-2.3-2.6c-0.9-0.7-2.1-1-3.4-1
			c-3.1,0-5.4,1.7-6.8,5.2c-1.4,3.5-2.1,9.2-2.1,17.3c0,3.8,0.1,7.3,0.4,10.4c0.2,3.1,0.7,5.8,1.3,8c0.6,2.2,1.5,3.9,2.7,5
			c1.2,1.2,2.7,1.8,4.5,1.8c0.8,0,1.6-0.2,2.6-0.6c0.9-0.4,1.8-1,2.6-1.9c0.8-0.8,1.5-1.9,2-3.2c0.5-1.3,0.8-2.8,0.8-4.5V485h-8.5
			v-9.5h21v34.7h-9.5v-5.9h-0.2c-1.6,2.5-3.4,4.3-5.6,5.4c-2.2,1-4.8,1.6-7.9,1.6c-4,0-7.2-0.7-9.7-2.1s-4.4-3.5-5.8-6.4
			c-1.4-2.9-2.4-6.4-2.8-10.7c-0.5-4.2-0.7-9.1-0.7-14.7c0-5.4,0.3-10.1,1-14.2c0.7-4.1,1.9-7.5,3.6-10.2c1.7-2.7,3.9-4.8,6.7-6.2
			c2.8-1.4,6.2-2.1,10.3-2.1c7.1,0,12.2,1.8,15.3,5.3c3.1,3.5,4.7,8.5,4.7,15.1h-12.4C553.9,463.7,553.8,462.5,553.5,461.2z"/>
		<path style="fill:#DB4FEC;" d="M576.1,445.9h13v64.3h-13V445.9z"/>
		<path style="fill:#DB4FEC;" d="M629.3,489.9h0.2v-44h11.9v64.3h-14.8l-15.8-45h-0.2v45h-11.9v-64.3h14.9L629.3,489.9z"/>
		<path style="fill:#DB4FEC;" d="M678.5,461.2c-0.3-1.3-0.7-2.4-1.3-3.5c-0.6-1-1.4-1.9-2.3-2.6c-0.9-0.7-2.1-1-3.4-1
			c-3.1,0-5.4,1.7-6.8,5.2c-1.4,3.5-2.1,9.2-2.1,17.3c0,3.8,0.1,7.3,0.4,10.4c0.2,3.1,0.7,5.8,1.3,8c0.6,2.2,1.5,3.9,2.7,5
			s2.7,1.8,4.5,1.8c0.8,0,1.6-0.2,2.6-0.6c0.9-0.4,1.8-1,2.6-1.9c0.8-0.8,1.5-1.9,2-3.2c0.5-1.3,0.8-2.8,0.8-4.5V485H671v-9.5h21
			v34.7h-9.5v-5.9h-0.2c-1.6,2.5-3.4,4.3-5.6,5.4c-2.2,1-4.8,1.6-7.9,1.6c-4,0-7.2-0.7-9.7-2.1c-2.5-1.4-4.4-3.5-5.9-6.4
			c-1.4-2.9-2.4-6.4-2.8-10.7c-0.5-4.2-0.7-9.1-0.7-14.7c0-5.4,0.3-10.1,1-14.2c0.7-4.1,1.9-7.5,3.6-10.2c1.7-2.7,3.9-4.8,6.7-6.2
			c2.8-1.4,6.2-2.1,10.3-2.1c7.1,0,12.2,1.8,15.3,5.3c3.1,3.5,4.7,8.5,4.7,15.1h-12.4C678.9,463.7,678.7,462.5,678.5,461.2z"/>
		<path style="fill:#DB4FEC;" d="M710.8,491.9c0,1.5,0.1,2.9,0.4,4.1c0.2,1.2,0.7,2.3,1.4,3.1c0.7,0.8,1.5,1.5,2.7,2
			c1.1,0.5,2.5,0.7,4.2,0.7c2,0,3.8-0.6,5.4-1.9c1.6-1.3,2.4-3.3,2.4-6c0-1.4-0.2-2.7-0.6-3.7c-0.4-1-1-2-1.9-2.8
			c-0.9-0.8-2.1-1.6-3.6-2.3c-1.5-0.7-3.3-1.4-5.4-2.1c-2.9-1-5.4-2-7.5-3.2c-2.1-1.1-3.9-2.5-5.3-4c-1.4-1.5-2.4-3.3-3.1-5.3
			c-0.7-2-1-4.3-1-7c0-6.4,1.8-11.1,5.3-14.2c3.5-3.1,8.4-4.7,14.6-4.7c2.9,0,5.5,0.3,8,0.9c2.4,0.6,4.5,1.7,6.3,3.1
			c1.8,1.4,3.1,3.2,4.1,5.4c1,2.2,1.5,4.8,1.5,7.9v1.8h-12.4c0-3.1-0.5-5.4-1.6-7.1c-1.1-1.6-2.9-2.5-5.4-2.5
			c-1.4,0-2.6,0.2-3.6,0.6c-1,0.4-1.7,1-2.3,1.7c-0.6,0.7-1,1.5-1.2,2.4c-0.2,0.9-0.3,1.8-0.3,2.8c0,2,0.4,3.6,1.3,5
			c0.8,1.3,2.6,2.6,5.4,3.7l10,4.3c2.5,1.1,4.5,2.2,6,3.4c1.6,1.2,2.8,2.4,3.7,3.8c0.9,1.3,1.6,2.8,1.9,4.5c0.4,1.6,0.5,3.4,0.5,5.4
			c0,6.8-2,11.7-5.9,14.8c-3.9,3.1-9.4,4.6-16.4,4.6c-7.3,0-12.6-1.6-15.7-4.8c-3.2-3.2-4.7-7.7-4.7-13.7V490h13V491.9z"/>
		<path style="fill:#DB4FEC;" d="M745.8,463.7c0-2.7,0.4-5.2,1.1-7.5c0.7-2.3,1.9-4.2,3.3-5.8c1.5-1.6,3.3-2.9,5.6-3.8
			c2.2-0.9,4.8-1.4,7.8-1.4c6.4,0,11.1,1.6,14.3,4.7c3.1,3.1,4.7,7.4,4.7,12.6c0,2.5-0.4,4.9-1.2,7s-2.3,4.5-4.5,7l-3.6,4.1
			c-1.6,1.7-2.7,3.3-3.4,4.8c-0.7,1.4-1,3.3-1,5.6v1.3h-11.2v-3.5c0-3,0.4-5.5,1.3-7.6c0.8-2.1,2.3-4.2,4.3-6.5l3.4-3.9
			c1.3-1.4,2.1-2.9,2.7-4.5c0.5-1.6,0.8-3.3,0.8-5.1c0-2.3-0.5-4.1-1.5-5.5c-1-1.4-2.6-2.1-4.6-2.1c-2.3,0-3.9,0.9-4.9,2.7
			c-1,1.8-1.5,4.2-1.5,7.2v2.2h-11.9V463.7z M769.6,510.1h-12.4v-11.9h12.4V510.1z"/>
	</g>
</g>
</svg>
